{"title":"THE GUNS OF NAVARONE-1961@KIDZCORNER H.264 AAC MP4 RIP[ENG]","uid":4970373,"size":1047552295,"categoryP":"video","categoryS":"handheld","magnet":"?xt=urn:btih:0b5e8de1520ff07b78943785d7a94c6dc5bfde84&amp;dn=THE+GUNS+OF+NAVARONE-1961%40KIDZCORNER+H.264+AAC+MP4+RIP%5BENG%5D&amp;tr=udp%3A%2F%2Ftracker.openbittorrent.com%3A80&amp;tr=udp%3A%2F%2Fopen.demonii.com%3A1337&amp;tr=udp%3A%2F%2Ftracker.coppersurfer.tk%3A6969&amp;tr=udp%3A%2F%2Fexodus.desync.com%3A6969","seeders":1,"leechers":0,"uploader":"alanwatson","files":-1,"time":1245742584,"description":"Gregory Peck, Anthony Quinn and David Niven are allied saboteurs assigned an impossible mission: infiltrate an impregnable Nazi-held island and destroy the two enormous long-range field guns that prevent the rescue of 2,000 trapped British soldiers.\n\nBlacklisted screenwriter Carl Foreman (High Noon, The Bridge on the River Kwai) was determined to re-establish both his name and credibility after spending most of the '50s working in anonymity. To accomplish this, he decided to bring Alistair MacLean's best-selling novel, The Guns of Navarose, to success, receiving seven 1961 Academy Award nominations (including Best picture) and winning for Best Special Effects. Although Foreman achieved his goal, it was MacLean who would wind up the true beneficiary; his novels became the source for many high adventure screen epics, including Ice Station Zebra and Where Eagles Dare, However, it is The Guns of Navarone that remains not only the best of the Maclean adaptations, but one of the greatest action/adventure spectacles ever produced.\n\nFormat : MPEG-4\nFormat profile : Base Media / Version 2\nCodec ID : mp42\nFile size : 999 MiB\nDuration : 2h 30mn\nOverall bit rate : 929 Kbps\nEncoded date : UTC 2009-06-19 17:20:00\nTagged date : UTC 2009-06-19 23:44:52\nWriting application : HandBrake 0.9.3 2008112300\n\nVideo\nFormat : AVC\nFormat/Info : Advanced Video Codec\nFormat profile : &lt;a class=&quot;__cf_email__&quot; href=&quot;/cdn-cgi/l/email-protection&quot; data-cfemail=&quot;662b070f08262a524856&quot;&gt;[email&amp;#160;protected]&lt;/a&gt;&lt;script data-cfhash='f9e31' type=&quot;text/javascript&quot;&gt;\n/* &lt;![CDATA[ */!function(){try{var t=&quot;currentScript&quot;in document?document.currentScript:function(){for(var t=document.getElementsByTagName(&quot;script&quot;),e=t.length;e--;)if(t[e].getAttribute(&quot;data-cfhash&quot;))return t[e]}();if(t&amp;&amp;t.previousSibling){var e,r,n,i,c=t.previousSibling,a=c.getAttribute(&quot;data-cfemail&quot;);if(a){for(e=&quot;&quot;,r=parseInt(a.substr(0,2),16),n=2;a.length-n;n+=2)i=parseInt(a.substr(n,2),16)^r,e+=String.fromCharCode(i);e=document.createTextNode(e),c.parentNode.replaceChild(e,c)}t.parentNode.removeChild(t);}}catch(u){}}()/* ]]&gt; */&lt;/script&gt;\nFormat settings, CABAC : Yes\nFormat settings, ReFrames : 3 frames\nCodec ID : avc1\nCodec ID/Info : Advanced Video Coding\nDuration : 2h 30mn\nBit rate mode : Variable\nBit rate : 766 Kbps\nWidth : 702 pixels\nHeight : 428 pixels\nDisplay aspect ratio : 2.35\nFrame rate mode : Variable\nFrame rate : 25.000 fps\nMinimum frame rate : 12.500 fps\nMaximum frame rate : 26.287 fps\nResolution : 24 bits\nColorimetry : 4:2:0\nScan type : Progressive\nBits/(Pixel*Frame) : 0.102\nStream size : 823 MiB (82%)\nWriting library : x264 core 65\n\n\nAudio\nFormat : AAC\nFormat/Info : Advanced Audio Codec\nFormat version : Version 4\nFormat profile : LC\nFormat settings, SBR : No\nCodec ID : 40\nDuration : 2h 30mn\nBit rate mode : Variable\nBit rate : 160 Kbps\nMaximum bit rate : 250 Kbps\nChannel(s) : 2 channels\nChannel positions : L R\nSampling rate : 48.0 KHz\nResolution : 16 bits\nStream size : 172 MiB (17%)\nLanguage : English\nEncoded date : UTC 2009-06-19 17:20:00\nTagged date : UTC 2009-06-19 23:44:44","torrent":{"xt":"urn:btih:0b5e8de1520ff07b78943785d7a94c6dc5bfde84","amp;dn":"THE+GUNS+OF+NAVARONE-1961%40KIDZCORNER+H.264+AAC+MP4+RIP%5BENG%5D","amp;tr":["udp%3A%2F%2Ftracker.openbittorrent.com%3A80","udp%3A%2F%2Fopen.demonii.com%3A1337","udp%3A%2F%2Ftracker.coppersurfer.tk%3A6969","udp%3A%2F%2Fexodus.desync.com%3A6969"],"infoHash":"0b5e8de1520ff07b78943785d7a94c6dc5bfde84","infoHashBuffer":{"type":"Buffer","data":[11,94,141,225,82,15,240,123,120,148,55,133,215,169,76,109,197,191,222,132]},"announce":[],"urlList":[]}}